# xmcd CD database file
#
# Track frame offsets:
#	150
#	20723
#	35333
#	50171
#	65287
#	81644
#	94194
#	107262
#	118742
#	142483
#	160406
#	177270
#	189892
#	213357
#	232014
#	251014
#
# Disc length: 3641 seconds
#
# Revision: 0
# Processed by: cddbd v1.5.2PL0 Copyright (c) Steve Scherf et al.
# Submitted via: CDex 1.70beta2
#
DISCID=ea0e3710
DTITLE=Paolo Conte - Wonderful
DYEAR=2007
DGENRE=Jazz
TTITLE0=Onda Su Onda
TTITLE1=Wanda - Stai Seria Con La Faccia
TTITLE2=Questa Sporca Vita
TTITLE3=La Fisarmonica di Stradella
TTITLE4=Avanti, Bionda
TTITLE5=La Topolino Amaranto
TTITLE6=Genova per Noi
TTITLE7=Bartali
TTITLE8=Gelato al Limon
TTITLE9=Sud America
TTITLE10=L'ultima Donna
TTITLE11=Via Con Me
TTITLE12=Alle Prese Con Una Verde Milonga
TTITLE13=Dancing
TTITLE14=Blue Tango
TTITLE15=Le Chic et le Charme
EXTD=YEAR: 2007
EXTT0=
EXTT1=
EXTT2=
EXTT3=
EXTT4=
EXTT5=
EXTT6=
EXTT7=
EXTT8=
EXTT9=
EXTT10=
EXTT11=
EXTT12=
EXTT13=
EXTT14=
EXTT15=
PLAYORDER=
